HIERARCHY
ROOT Hips
{
	OFFSET 0.00 0.00 0.00
	CHANNELS 6 Xposition Yposition Zposition Xrotation Yrotation Zrotation
	JOINT Spine
	{
		OFFSET 0.00000 7.50895 0.00000
		CHANNELS 3 Xrotation Yrotation Zrotation
		JOINT Head
		{
			OFFSET 0.00000 13.86115 0.00000
			CHANNELS 3 Xrotation Yrotation Zrotation
			End Site
			{
				OFFSET 0.00000 4.52755 0.00000
			}
		}
		JOINT LeftShoulder
		{
			OFFSET 0.00000 8.20478 0.00000
			CHANNELS 3 Xrotation Yrotation Zrotation
			JOINT LeftArm
			{
				OFFSET 6.63596 0.00000 0.00000
				CHANNELS 3 Xrotation Yrotation Zrotation
				JOINT LeftForeArm
				{
					OFFSET 10.27422 0.00000 0.00000
					CHANNELS 3 Yrotation Zrotation Xrotation
					JOINT LeftHand
					{
						OFFSET 8.52215 0.00000 0.00000
						CHANNELS 3 Xrotation Yrotation Zrotation
						JOINT LeftHandThumb1
						{
							OFFSET 0.00000 0.00000 0.00000
							CHANNELS 3 Xrotation Zrotation Yrotation
							End Site
							{
								OFFSET 0.00000 0.00000 3.93700
							}
						}
						End Site
						{
							OFFSET 3.93700 0.00000 0.00000
						}
					}
				}
			}
		}
		JOINT RightShoulder
		{
			OFFSET 0.00000 8.20478 0.00000
			CHANNELS 3 Xrotation Yrotation Zrotation
			JOINT RightArm
			{
				OFFSET -6.63596 0.00000 0.00000
				CHANNELS 3 Xrotation Yrotation Zrotation
				JOINT RightForeArm
				{
					OFFSET -10.27422 0.00000 0.00000
					CHANNELS 3 Yrotation Zrotation Xrotation
					JOINT RightHand
					{
						OFFSET -8.52215 0.00000 0.00000
						CHANNELS 3 Xrotation Yrotation Zrotation
						JOINT RightHandThumb1
						{
							OFFSET 0.00000 0.00000 0.00000
							CHANNELS 3 Xrotation Zrotation Yrotation
							End Site
							{
								OFFSET 0.00000 0.00000 3.93700
							}
						}
						End Site
						{
							OFFSET -3.93700 0.00000 0.00000
						}
					}
				}
			}
		}
	}
	JOINT LeftUpLeg
	{
		OFFSET 3.00056 0.00000 0.00000
		CHANNELS 3 Xrotation Yrotation Zrotation
		JOINT LeftLeg
		{
			OFFSET 0.00000 -16.49085 0.00000
			CHANNELS 3 Xrotation Yrotation Zrotation
			JOINT LeftFoot
			{
				OFFSET 0.00000 -14.55658 0.00000
				CHANNELS 3 Xrotation Yrotation Zrotation
				JOINT LeftToeBase
				{
					OFFSET 0.00000 -1.25038 4.66650
					CHANNELS 3 Xrotation Yrotation Zrotation
					End Site
					{
						OFFSET 0.00000 0.00000 2.95275
					}
				}
			}
		}
	}
	JOINT RightUpLeg
	{
		OFFSET -3.00056 0.00000 0.00000
		CHANNELS 3 Xrotation Yrotation Zrotation
		JOINT RightLeg
		{
			OFFSET 0.00000 -16.49085 0.00000
			CHANNELS 3 Xrotation Yrotation Zrotation
			JOINT RightFoot
			{
				OFFSET 0.00000 -14.55658 0.00000
				CHANNELS 3 Xrotation Yrotation Zrotation
				JOINT RightToeBase
				{
					OFFSET 0.00000 -1.25038 4.66650
					CHANNELS 3 Xrotation Yrotation Zrotation
					End Site
					{
						OFFSET 0.00000 0.00000 2.95275
					}
				}
			}
		}
	}
}
MOTION
Frames: 22
Frame Time: 0.008333
 1.7010 32.8421 1.9385 11.1092 2.8593 -0.3501 -11.4916 6.3893 0.5379 -2.7823 -11.6329 8.7203 21.9698 21.6416 3.5440 -2.6988 -60.1887 -98.6354 -19.3374 -0.0000 18.5397 11.8364 10.5847 -48.7660 33.1476 -0.0000 26.2537 -9.7525 -24.8521 -20.2605 21.7627 56.9402 109.7345 20.0933 -0.0000 21.0597 -26.5875 28.9345 45.9709 32.8623 0.0000 -24.3270 -4.1056 7.7346 3.6486 -4.7567 0.0000 -0.0000 -5.3929 3.3375 -17.6595 8.3999 0.0000 -0.0000 -4.8454 -12.2625 -7.1532 -1.7534 0.0000 0.0000 -3.9955 -2.5699 3.7665 -3.2429 0.0000 0.0000
 1.6996 32.8410 1.9359 11.1720 2.8493 -0.3635 -11.6326 6.3976 0.5490 -2.6671 -11.6026 8.7139 21.8723 21.4366 3.4566 -3.0799 -60.2029 -98.8011 -19.4955 -0.0000 18.8810 11.8124 10.4438 -49.0827 33.1476 -0.0000 26.2537 -9.8904 -24.6886 -20.1274 21.4881 57.3171 109.8015 20.3393 -0.0000 20.8338 -25.1271 27.8865 45.0788 32.8623 0.0000 -24.3270 -4.1520 7.7314 3.6625 -4.8031 0.0000 0.0000 -5.3817 3.3493 -17.6830 8.4869 -0.0000 0.0000 -4.8704 -12.2656 -7.1320 -1.8390 0.0000 -0.0000 -3.9481 -2.5515 3.7530 -3.2513 0.0000 0.0000
 1.6985 32.8385 1.9327 11.2064 2.8646 -0.3792 -11.7160 6.3988 0.5554 -2.6158 -11.5968 8.7309 21.7430 21.2489 3.3966 -3.5213 -60.2693 -99.0317 -19.6165 -0.0000 19.3508 11.8333 10.3041 -49.5112 33.1476 -0.0000 26.2537 -10.0112 -24.6297 -19.9636 21.2712 57.4650 109.6545 20.5887 0.0000 19.2781 -23.1580 25.9504 44.3472 32.8623 0.0000 -24.3270 -4.1812 7.7023 3.6791 -4.8298 -0.0000 -0.0000 -5.3875 3.3506 -17.6965 8.4627 -0.0000 0.0000 -4.8922 -12.3077 -7.1184 -1.8701 -0.0000 -0.0000 -3.9481 -2.5226 3.8100 -3.2689 -0.0000 0.0000
 1.7098 32.8375 1.9249 11.2939 2.8015 -0.3474 -11.8804 6.4612 0.5645 -2.5316 -11.5980 8.6868 21.6534 21.0644 3.3074 -3.9301 -60.3300 -99.2528 -19.7333 0.0000 19.7585 11.7379 10.1297 -49.7534 33.1476 -0.0000 26.2537 -10.1497 -24.4874 -19.8538 20.9307 58.0023 109.7397 20.8397 0.0000 18.8883 -21.8604 24.8802 43.6391 32.8623 0.0000 -24.3270 -4.2509 7.7274 3.6210 -4.8601 0.0000 0.0000 -5.3690 3.3913 -17.6509 8.4082 -0.0000 -0.0000 -5.0137 -12.3032 -7.1712 -1.8813 0.0000 0.0000 -3.9371 -2.4633 3.8115 -3.2530 0.0000 0.0000
 1.7131 32.8368 1.9210 11.3512 2.7856 -0.3330 -12.0059 6.4706 0.5504 -2.4567 -11.6119 8.6735 21.5674 20.9147 3.2408 -4.3044 -60.4210 -99.4284 -19.8399 0.0000 20.1270 11.6911 10.0156 -49.9540 33.1476 -0.0000 26.2537 -10.2558 -24.3780 -19.7195 20.5360 58.5953 109.8796 21.1008 0.0000 19.0342 -20.7676 24.0892 42.8950 32.8623 0.0000 -24.3270 -4.2978 7.6968 3.5909 -4.8663 -0.0000 0.0000 -5.3725 3.4980 -17.6470 8.4313 -0.0000 0.0000 -5.0749 -12.3114 -7.1926 -1.9070 -0.0000 -0.0000 -3.9269 -2.4383 3.8196 -3.2582 0.0000 0.0000
 1.7140 32.8352 1.9199 11.3894 2.7720 -0.3289 -12.1076 6.4528 0.5477 -2.4099 -11.6122 8.6399 21.4982 20.8177 3.1495 -4.5903 -60.5725 -99.5102 -19.9774 0.0000 20.4156 11.9394 10.0524 -50.4611 33.1476 -0.0000 26.2537 -10.3908 -24.2701 -19.6070 20.3130 59.1076 109.9017 21.3763 0.0000 19.5639 -19.6922 23.3563 42.0746 32.8623 0.0000 -24.3270 -4.3248 7.7011 3.5835 -4.8886 -0.0000 -0.0000 -5.3788 3.5093 -17.6477 8.4544 -0.0000 0.0000 -5.1051 -12.3100 -7.2011 -1.9353 0.0000 0.0000 -3.9202 -2.4133 3.8319 -3.2717 0.0000 0.0000
 1.7190 32.8345 1.9175 11.4252 2.6834 -0.3208 -12.2123 6.5252 0.5811 -2.3618 -11.6205 8.5572 21.4585 20.7162 3.0277 -4.8139 -60.6362 -99.5467 -20.0608 0.0000 20.7193 12.1791 10.1173 -50.8574 33.1476 -0.0000 26.2537 -10.4521 -24.1860 -19.5376 19.9018 59.5368 110.0799 21.4606 0.0000 20.2831 -18.6781 22.6681 41.2564 32.8623 0.0000 -24.3270 -4.3390 7.7635 3.5692 -4.9170 0.0000 0.0000 -5.3754 3.5326 -17.6275 8.4731 0.0000 0.0000 -5.1573 -12.2207 -7.2155 -1.9315 -0.0000 0.0000 -3.9094 -2.4119 3.8737 -3.2814 -0.0000 -0.0000
 1.7202 32.8340 1.9184 11.4496 2.6617 -0.3116 -12.3155 6.5417 0.5768 -2.2596 -11.6483 8.5054 21.4195 20.6112 2.9522 -4.9391 -60.6041 -99.5520 -20.1176 0.0000 20.9930 12.6633 10.1974 -51.7638 33.1476 -0.0000 26.2537 -10.4684 -24.2028 -19.4519 19.5344 59.9839 110.2011 21.5447 0.0000 20.9086 -17.5517 21.7461 40.4875 32.8623 0.0000 -24.3270 -4.3509 7.7672 3.5598 -4.9163 0.0000 0.0000 -5.3979 3.5120 -17.6492 8.6172 -0.0000 0.0000 -5.1782 -12.2074 -7.2250 -1.9473 0.0000 -0.0000 -3.9081 -2.4024 3.8801 -3.2692 -0.0000 -0.0000
 1.7203 32.8328 1.9217 11.4544 2.6527 -0.3089 -12.3984 6.5327 0.5684 -2.1614 -11.6705 8.4730 21.4301 20.5444 2.8892 -5.0852 -60.5619 -99.5824 -20.1736 0.0000 21.0997 12.7104 10.1523 -51.9927 33.1476 -0.0000 26.2537 -10.4697 -24.1989 -19.3797 19.2669 60.3164 110.2611 21.7364 0.0000 20.9420 -16.4022 20.5377 39.9982 32.8623 0.0000 -24.3270 -4.3451 7.7961 3.5661 -4.9487 0.0000 -0.0000 -5.3706 3.4715 -17.6315 8.4533 0.0000 0.0000 -5.1638 -12.2048 -7.2252 -1.9785 -0.0000 0.0000 -3.8962 -2.3880 3.8809 -3.2883 0.0000 -0.0000
 1.7204 32.8321 1.9270 11.4386 2.6259 -0.3083 -12.4643 6.5490 0.5695 -2.0434 -11.6938 8.4426 21.4444 20.4628 2.8300 -5.0934 -60.4399 -99.5434 -20.2256 0.0000 21.0698 12.7967 10.1216 -52.2700 33.1476 -0.0000 26.2537 -10.4292 -24.1872 -19.3010 19.0448 60.6327 110.3229 21.8896 0.0000 21.1701 -15.3343 19.4056 39.5334 32.8623 0.0000 -24.3270 -4.3144 7.8004 3.5647 -4.9417 0.0000 0.0000 -5.3911 3.5308 -17.6621 8.4635 -0.0000 0.0000 -5.1343 -12.1832 -7.2259 -1.9916 -0.0000 -0.0000 -3.8959 -2.3728 3.9404 -3.2627 -0.0000 0.0000
 1.7210 32.8312 1.9343 11.4096 2.6110 -0.3004 -12.5077 6.5353 0.5558 -1.9523 -11.6964 8.4333 21.4893 20.4331 2.7680 -5.0432 -60.3214 -99.4528 -20.2940 0.0000 20.9381 12.9017 10.1837 -52.3367 33.1476 -0.0000 26.2537 -10.3723 -24.1352 -19.2033 18.8913 60.9612 110.3644 22.0707 0.0000 20.9818 -14.2586 18.1368 39.2275 32.8623 0.0000 -24.3270 -4.2705 7.8209 3.5665 -4.9510 -0.0000 -0.0000 -5.3946 3.4710 -17.6272 8.4462 0.0000 0.0000 -5.0871 -12.1727 -7.2301 -2.0073 0.0000 -0.0000 -3.9070 -2.3770 3.9501 -3.2708 -0.0000 -0.0000
 1.7222 32.8301 1.9428 11.3748 2.5833 -0.2887 -12.5369 6.5274 0.5401 -1.8854 -11.6871 8.4178 21.5598 20.4117 2.7022 -4.9643 -60.2462 -99.3420 -20.3318 0.0000 20.8008 13.0192 10.2568 -52.4008 33.1476 -0.0000 26.2537 -10.2920 -24.0660 -19.0937 18.8179 61.3009 110.3571 22.2451 0.0000 20.7882 -13.2122 16.8779 38.9600 32.8623 0.0000 -24.3270 -4.2169 7.8292 3.5581 -4.9458 -0.0000 0.0000 -5.4179 3.4871 -17.6324 8.4368 0.0000 -0.0000 -5.0374 -12.1461 -7.2329 -2.0168 -0.0000 -0.0000 -3.9142 -2.3946 3.8872 -3.2873 0.0000 0.0000
 1.7225 32.8292 1.9514 11.3399 2.5411 -0.2839 -12.5628 6.5309 0.5337 -1.8277 -11.6669 8.4160 21.6478 20.4084 2.6298 -4.8844 -60.2726 -99.2208 -20.3464 0.0000 20.5385 13.0635 10.2847 -52.4236 33.1476 -0.0000 26.2537 -10.1827 -24.0203 -18.9751 18.7188 61.7718 110.3679 22.3829 0.0000 20.5389 -12.1898 15.6449 38.6965 32.8623 0.0000 -24.3270 -4.1693 7.8453 3.5603 -4.9291 -0.0000 0.0000 -5.4471 3.5141 -17.6222 8.4304 -0.0000 0.0000 -4.9930 -12.1071 -7.2314 -2.0130 0.0000 0.0000 -3.9179 -2.4044 3.8963 -3.3212 -0.0000 -0.0000
 1.7232 32.8287 1.9609 11.2986 2.4991 -0.2712 -12.5754 6.5503 0.5152 -1.7841 -11.6548 8.4289 21.7213 20.3978 2.5718 -4.7710 -60.4021 -99.0860 -20.3529 -0.0000 20.2330 13.1856 10.3647 -52.4781 33.1476 -0.0000 26.2537 -10.0409 -23.9443 -18.8109 18.7363 62.1908 110.3302 22.4992 0.0000 20.3135 -11.1935 14.4398 38.4346 32.8623 0.0000 -24.3270 -4.1245 7.8536 3.5572 -4.8827 0.0000 0.0000 -5.4867 3.5494 -17.6504 8.4305 -0.0000 -0.0000 -4.9410 -12.0409 -7.2388 -2.0064 0.0000 -0.0000 -3.9418 -2.4287 3.8856 -3.2724 0.0000 0.0000
 1.7233 32.8276 1.9695 11.2450 2.4618 -0.2663 -12.5610 6.5792 0.5066 -1.7556 -11.6473 8.4287 21.8040 20.3700 2.5260 -4.6334 -60.5214 -98.9307 -20.3751 -0.0000 19.9138 13.3365 10.4620 -52.5488 33.1476 -0.0000 26.2537 -9.8927 -23.8727 -18.6680 18.9414 62.4231 110.1187 22.7375 0.0000 19.4839 -10.1252 12.9959 38.4534 32.8623 0.0000 -24.3270 -4.0704 7.8373 3.5549 -4.8258 -0.0000 -0.0000 -5.5545 3.6416 -17.6600 8.5098 0.0000 -0.0000 -4.8831 -11.9766 -7.2376 -1.9811 -0.0000 0.0000 -3.9701 -2.4610 3.8685 -3.2941 0.0000 -0.0000
 1.7211 32.8268 1.9777 11.1840 2.4245 -0.2747 -12.5245 6.6129 0.4997 -1.7408 -11.6460 8.4705 21.8707 20.3515 2.5006 -4.4861 -60.6462 -98.7813 -20.3626 -0.0000 19.5790 13.3905 10.5373 -52.4687 33.1476 -0.0000 26.2537 -9.7019 -23.8595 -18.5149 18.9238 62.8335 110.0487 22.9128 0.0000 18.6467 -9.0762 11.6355 38.3817 32.8623 0.0000 -24.3270 -4.0223 7.8337 3.5853 -4.7608 -0.0000 -0.0000 -5.6278 3.5950 -17.6193 8.5597 0.0000 -0.0000 -4.8158 -11.8739 -7.2206 -1.9432 0.0000 0.0000 -3.9993 -2.5271 3.8570 -3.2728 -0.0000 0.0000
 1.7196 32.8258 1.9864 11.1097 2.3771 -0.2858 -12.4647 6.6690 0.5043 -1.7319 -11.6525 8.5002 21.9718 20.3325 2.4531 -4.3878 -60.8188 -98.6553 -20.3321 -0.0000 19.1147 13.0911 10.5102 -51.8889 33.1476 -0.0000 26.2537 -9.4954 -23.9278 -18.3523 18.9899 63.2099 109.8724 23.1313 0.0000 17.7125 -8.0314 10.3013 38.2748 32.8623 0.0000 -24.3270 -3.9762 7.8726 3.6043 -4.6666 0.0000 -0.0000 -5.7039 3.6912 -17.6347 8.4828 0.0000 -0.0000 -4.7278 -11.7842 -7.2020 -1.9288 -0.0000 -0.0000 -4.0103 -2.5602 3.8982 -3.2711 -0.0000 -0.0000
 1.7190 32.8250 1.9947 11.0218 2.3372 -0.2884 -12.3779 6.7289 0.5013 -1.7272 -11.6561 8.5389 22.0714 20.3016 2.4383 -4.3128 -60.9317 -98.5619 -20.3178 -0.0000 18.7292 12.9050 10.4245 -51.7015 33.1476 -0.0000 26.2537 -9.2999 -23.9910 -18.2220 19.1237 63.5325 109.6622 23.3849 0.0000 16.9023 -7.0629 9.0355 38.2711 32.8623 0.0000 -24.3270 -3.9351 7.9435 3.6184 -4.5355 -0.0000 0.0000 -5.8072 3.6613 -17.5847 8.4334 -0.0000 0.0000 -4.6407 -11.6926 -7.1927 -1.8833 -0.0000 -0.0000 -4.0467 -2.6146 3.8664 -3.2490 0.0000 0.0000
 1.7185 32.8239 2.0040 10.9121 2.3078 -0.2900 -12.2649 6.7680 0.4919 -1.7064 -11.6508 8.5906 22.1529 20.2644 2.4585 -4.2862 -61.0352 -98.5562 -20.2348 -0.0000 18.3299 12.7658 10.4037 -51.4436 33.1476 -0.0000 26.2537 -9.0949 -24.0319 -18.0980 19.1503 63.8557 109.5668 23.5361 0.0000 16.3383 -6.1821 7.9056 38.2218 32.8623 0.0000 -24.3270 -3.8354 7.8973 3.6388 -4.4769 0.0000 0.0000 -5.8573 3.6869 -17.5300 8.3582 -0.0000 0.0000 -4.5665 -11.6729 -7.1885 -1.7808 -0.0000 -0.0000 -4.1116 -2.6135 3.8386 -3.2691 0.0000 -0.0000
 1.7140 32.8219 2.0148 10.7922 2.2912 -0.3094 -12.1356 6.7727 0.4889 -1.6844 -11.6013 8.6639 22.2141 20.2408 2.5099 -4.1810 -61.0527 -98.5111 -20.2180 -0.0000 17.9184 12.8943 10.5227 -51.4190 33.1476 -0.0000 26.2537 -8.9219 -24.0474 -17.9554 19.3358 64.2408 109.3635 23.7879 0.0000 15.9400 -5.3463 6.8469 38.1307 32.8623 0.0000 -24.3270 -3.7187 7.8061 3.6721 -4.4100 -0.0000 -0.0000 -5.9537 3.8419 -17.5043 8.4401 -0.0000 0.0000 -4.4455 -11.6308 -7.1546 -1.7264 0.0000 0.0000 -4.1651 -2.6605 3.8249 -3.2349 0.0000 0.0000
 1.7148 32.8218 2.0216 10.7001 2.2529 -0.3188 -12.0431 6.8094 0.4988 -1.6218 -11.5701 8.7250 22.3201 20.1748 2.5160 -4.0417 -61.1015 -98.4250 -20.2117 -0.0000 17.4670 12.6010 10.3554 -51.1970 33.1476 -0.0000 26.2537 -8.7251 -24.0463 -17.8497 19.3567 64.6681 109.2739 24.0745 0.0000 15.5742 -4.5869 5.8690 38.1172 32.8623 0.0000 -24.3270 -3.6399 7.7775 3.6952 -4.3534 -0.0000 -0.0000 -5.9924 3.8676 -17.4349 8.2866 0.0000 -0.0000 -4.3844 -11.5634 -7.1481 -1.6329 -0.0000 0.0000 -4.2051 -2.6720 3.8071 -3.2553 0.0000 0.0000
 1.7143 32.8227 2.0241 10.6309 2.2128 -0.3276 -11.9659 6.8245 0.4941 -1.5580 -11.5051 8.8213 22.4231 20.1070 2.5317 -3.8952 -61.1690 -98.3304 -20.2272 -0.0000 16.9375 12.5045 10.3895 -50.8834 33.1476 -0.0000 26.2537 -8.5358 -23.9775 -17.7029 19.3080 65.2992 109.2595 24.3701 0.0000 15.6071 -3.9089 5.0313 37.9232 32.8623 0.0000 -24.3270 -3.5754 7.6600 3.7091 -4.2876 0.0000 -0.0000 -6.0627 4.0396 -17.4236 8.4259 -0.0000 -0.0000 -4.2688 -11.3262 -7.1386 -1.6702 -0.0000 0.0000 -4.1700 -2.8394 3.9190 -3.2607 0.0000 0.0000
